<svg xmlns="http://www.w3.org/2000/svg" viewBox="0 0 45.22 44"><defs><style>.cls-1{fill:none;stroke:#505050;stroke-miterlimit:10;stroke-width:2px;}</style></defs><g id="Camada_2" data-name="Camada 2"><g id="icons"><polyline class="cls-1" points="28.22 44 28.22 43 21.22 28 6.22 28 6.22 43 6.22 44"/><path class="cls-1" d="M27.22,33h-13c-.09-.19-7.51-12.21-7.51-12.21-1.95-3.26-3.27-4.14-5-2.76-.87.69-1,1.93.09,3.51l9.31,14.69A3.31,3.31,0,0,0,14.22,38h18V36C32.22,34.34,31.22,33,27.22,33Z"/><path class="cls-1" d="M32.22,22h5a7,7,0,0,0,0-14,6.25,6.25,0,0,0-.87.06V8a7,7,0,0,0-14,0v.06A7,7,0,0,0,23.22,22h3"/><line class="cls-1" x1="29.22" y1="7" x2="29.22" y2="31"/><line class="cls-1" x1="34.22" y1="15" x2="29.22" y2="20"/><line class="cls-1" x1="24.22" y1="11" x2="29.22" y2="16"/><line class="cls-1" x1="21.22" y1="28" x2="26.22" y2="28"/></g></g></svg>