<svg xmlns="http://www.w3.org/2000/svg" viewBox="0 0 48 43"><defs><style>.cls-1{fill:none;stroke:#505050;stroke-miterlimit:10;stroke-width:2px;}</style></defs><g id="Camada_2" data-name="Camada 2"><g id="icons"><path class="cls-1" d="M38,16V3a2,2,0,0,0-2-2H3A2,2,0,0,0,1,3V23a2,2,0,0,0,2,2H8"/><line class="cls-1" x1="38" y1="6" x2="1" y2="6"/><line class="cls-1" x1="38" y1="12" x2="1" y2="12"/><rect class="cls-1" x="10" y="18" width="37" height="24" rx="2"/><line class="cls-1" x1="14" y1="35" x2="19" y2="35"/><line class="cls-1" x1="22" y1="35" x2="27" y2="35"/><line class="cls-1" x1="30" y1="35" x2="35" y2="35"/><line class="cls-1" x1="38" y1="35" x2="43" y2="35"/><path class="cls-1" d="M42,26.5A3.5,3.5,0,0,1,38.5,30h-1A3.5,3.5,0,0,1,34,26.5h0A3.5,3.5,0,0,1,37.5,23h1A3.5,3.5,0,0,1,42,26.5Z"/></g></g></svg>