<svg xmlns="http://www.w3.org/2000/svg" viewBox="0 0 48 43"><defs><style>.cls-1,.cls-2,.cls-3{fill:none;stroke:#505050;stroke-width:2px;}.cls-1{stroke-miterlimit:10;}.cls-2,.cls-3{stroke-linejoin:round;}.cls-3{stroke-linecap:round;}</style></defs><g id="Camada_2" data-name="Camada 2"><g id="icons"><path class="cls-1" d="M10,20a4.1,4.1,0,0,0,4-4.29V14.29A4.1,4.1,0,0,0,10,10a4.1,4.1,0,0,0-4,4.29v1.42A4.1,4.1,0,0,0,10,20Z"/><path class="cls-2" d="M17,25c-1.33-.71-2.92-1.92-5-2H7c-3.58,0-6,1.51-6,6v4c0,4,3.24,5,6,5h4"/><path class="cls-2" d="M6,28v4a1,1,0,0,0,1,1h6"/><line class="cls-2" x1="5" y1="38" x2="5" y2="43"/><line class="cls-2" x1="16" y1="40" x2="16" y2="43"/><path class="cls-2" d="M22.76,36H19l2-4h3.38a1,1,0,0,1,.9,1.45l-.73,1.44A2,2,0,0,1,22.76,36Z"/><line class="cls-2" x1="10" y1="27" x2="14" y2="32"/><polyline class="cls-2" points="24 32 26 28 16 28 10 40 20 40 22 36"/><line class="cls-3" x1="30" y1="4" x2="30" y2="6"/><line class="cls-3" x1="44" y1="18" x2="42" y2="18"/><line class="cls-3" x1="30" y1="32" x2="30" y2="30"/><polyline class="cls-3" points="25 14 30 19 38 11"/><path class="cls-3" d="M16.17,8.11A17,17,0,1,1,30,35c-.38,0-.75,0-1.12,0"/></g></g></svg>