<svg xmlns="http://www.w3.org/2000/svg" viewBox="0 0 38 45"><defs><style>.cls-1,.cls-2,.cls-3{fill:none;stroke:#505050;stroke-width:2px;}.cls-1{stroke-linecap:round;}.cls-1,.cls-2{stroke-miterlimit:10;}.cls-3{stroke-linejoin:round;}</style></defs><g id="Camada_2" data-name="Camada 2"><g id="icons"><path class="cls-1" d="M11,28h2c1.72,0,2.58,2,5,2h6.5c2,0,2.94-1,3.39-3,.34-1.48,1.11-7,1.11-7,.19-1.78-1-3-3-3h-.61"/><path class="cls-1" d="M17,23a4.8,4.8,0,0,0,4.57-4,5.05,5.05,0,0,1,.55-2A7.25,7.25,0,0,0,23,13.51a3.36,3.36,0,0,0-1.36-3.09C20.56,9.6,19,10.17,19,11v1c0,1.87-1,2.09-2.38,3.49A7,7,0,0,1,13,17H11"/><polyline class="cls-2" points="7 16 11 16 11 29 7 29"/><path class="cls-3" d="M19,1c1.78,2.45,12.92,7,18,7V27c0,6.78-17,16.74-18,17C18,43.74,1,33.78,1,27V8C6.08,8,17.22,3.45,19,1Z"/></g></g></svg>