<svg xmlns="http://www.w3.org/2000/svg" viewBox="0 0 97.67 97.67"><defs><style>.cls-1{isolation:isolate;}.cls-2{fill:#fff;}</style></defs><g id="Camada_2" data-name="Camada 2"><g id="Forma_2" data-name="Forma 2" class="cls-1"><g id="Forma_2-2" data-name="Forma 2"><path class="cls-2" d="M31.51,86.64h1.57v1.58a1.58,1.58,0,0,0,3.15,0V86.64H64.59v1.58a1.58,1.58,0,0,0,3.15,0V86.64h1.58a1.57,1.57,0,0,0,1.57-1.57V75.62a4.72,4.72,0,0,0-3.15-4.44v-5A4.73,4.73,0,0,0,63,61.44H37.81a4.73,4.73,0,0,0-4.73,4.72v5a4.72,4.72,0,0,0-3.15,4.44v9.45A1.57,1.57,0,0,0,31.51,86.64Zm29.93-3.15H39.38V78.77H61.44ZM66.17,74a1.58,1.58,0,0,1,1.57,1.58v7.87H64.59V75.62A1.58,1.58,0,0,1,66.17,74ZM36.23,66.16a1.58,1.58,0,0,1,1.58-1.57H63a1.58,1.58,0,0,1,1.58,1.57v5a4.72,4.72,0,0,0-3.15,4.44H39.38a4.72,4.72,0,0,0-3.15-4.44Zm-3.15,9.46a1.58,1.58,0,1,1,3.15,0v7.87H33.08ZM81.92,48.84h-63a1.57,1.57,0,0,0-1.57,1.57V96.1a1.57,1.57,0,0,0,1.57,1.57h63a1.57,1.57,0,0,0,1.57-1.57V50.41A1.57,1.57,0,0,0,81.92,48.84ZM80.34,94.52H20.48V52H80.34Zm4.73-72.46H56.71a1.57,1.57,0,0,0-1.57,1.57v6.3a1.57,1.57,0,0,0,1.57,1.58h3.92l-3.79,8.83a1.58,1.58,0,0,0,.83,2.07,1.67,1.67,0,0,0,.62.12,1.57,1.57,0,0,0,1.45-1l4.31-10.07H77.73l4.32,10.07a1.55,1.55,0,0,0,1.44,1,1.67,1.67,0,0,0,.62-.12,1.58,1.58,0,0,0,.83-2.07l-3.78-8.83h3.91a1.57,1.57,0,0,0,1.57-1.58v-6.3A1.57,1.57,0,0,0,85.07,22.06Zm-1.58,6.3H58.29V25.21h25.2ZM96.1,7.88H50.41a1.58,1.58,0,0,0,0,3.15H94.52V53.56H89.8a1.58,1.58,0,1,0,0,3.15h6.3a1.57,1.57,0,0,0,1.57-1.57V9.45A1.57,1.57,0,0,0,96.1,7.88Zm-77.81,35a6.5,6.5,0,0,0,10.26-5.1h4.53a1.58,1.58,0,0,0,1.57-1.72,12.42,12.42,0,0,0-7-10.07,1.53,1.53,0,0,1-.87-1.38v0a2.55,2.55,0,0,0-2.55-2.55h-.6V9.45a1.58,1.58,0,0,0-3.15,0V22.06h-.6a2.55,2.55,0,0,0-2.55,2.55v0A1.53,1.53,0,0,1,16.46,26a12.42,12.42,0,0,0-7,10.07A1.58,1.58,0,0,0,11,37.81h4.53A6.5,6.5,0,0,0,18.29,42.91ZM24,40.34a3.34,3.34,0,0,1-5.28-2.53h6.67A3.35,3.35,0,0,1,24,40.34ZM12.92,34.66a9.29,9.29,0,0,1,4.89-5.8,4.71,4.71,0,0,0,2.64-3.65h3.22a4.69,4.69,0,0,0,2.63,3.65,9.29,9.29,0,0,1,4.89,5.8ZM11,53.56H3.15V3.15H41V42.53a1.58,1.58,0,1,0,3.15,0V1.58A1.58,1.58,0,0,0,42.53,0H1.58A1.58,1.58,0,0,0,0,1.58V55.14a1.57,1.57,0,0,0,1.58,1.57H11a1.58,1.58,0,0,0,0-3.15Z"/></g></g></g></svg>