<svg xmlns="http://www.w3.org/2000/svg" viewBox="0 0 97.78 97.81"><defs><style>.cls-1{isolation:isolate;}.cls-2{fill:#fff;}</style></defs><g id="Camada_2" data-name="Camada 2"><g id="Forma_4" data-name="Forma 4" class="cls-1"><g id="Forma_4-2" data-name="Forma 4"><path class="cls-2" d="M93.05,56.79H61.51a4.74,4.74,0,0,0-4.73,4.74V93.08a4.73,4.73,0,0,0,4.73,4.73H93.05a4.73,4.73,0,0,0,4.73-4.73V61.53A4.74,4.74,0,0,0,93.05,56.79ZM75.7,94.66H61.51a1.58,1.58,0,0,1-1.58-1.58V78.88H75.7Zm0-18.93H59.93V61.53A1.58,1.58,0,0,1,61.51,60H75.7ZM94.63,93.08a1.58,1.58,0,0,1-1.58,1.58H78.86V78.88H94.63Zm0-17.35H78.86V60H93.05a1.58,1.58,0,0,1,1.58,1.58Zm-30-6.32h1.58V71a1.58,1.58,0,1,0,3.15,0V69.41H71a1.58,1.58,0,1,0,0-3.15H69.39V64.68a1.58,1.58,0,1,0-3.15,0v1.58H64.66a1.58,1.58,0,0,0,0,3.15ZM63.55,91a1.54,1.54,0,0,0,1.11.46A1.57,1.57,0,0,0,65.78,91l2-2,2,2A1.54,1.54,0,0,0,71,91.5a1.58,1.58,0,0,0,1.12-2.69l-2-2,2-2a1.59,1.59,0,0,0,0-2.23,1.57,1.57,0,0,0-2.23,0l-2,2-2-2a1.58,1.58,0,0,0-2.23,2.23l2,2-2,2A1.57,1.57,0,0,0,63.55,91ZM89.9,66.26H83.59a1.58,1.58,0,1,0,0,3.15H89.9a1.58,1.58,0,0,0,0-3.15ZM83.59,85.19H89.9a1.58,1.58,0,0,0,0-3.15H83.59a1.58,1.58,0,1,0,0,3.15Zm0,6.31H89.9a1.58,1.58,0,0,0,0-3.15H83.59a1.58,1.58,0,1,0,0,3.15Zm-82-69.41H17.35a4.74,4.74,0,0,0,4.73-4.74V3.16h41V50.48a1.58,1.58,0,1,0,3.15,0V1.58A1.58,1.58,0,0,0,64.66,0H20.5a1.56,1.56,0,0,0-1.07.42h0l0,0L.46,19.39a1.58,1.58,0,0,0,1.12,2.7ZM18.93,5.39v12a1.58,1.58,0,0,1-1.58,1.58h-12ZM50.47,86.77H3.15V26.82a1.58,1.58,0,1,0-3.15,0V88.35a1.57,1.57,0,0,0,1.58,1.57H50.47a1.58,1.58,0,1,0,0-3.15Zm3.15-77.3h-11a1.58,1.58,0,0,0,0,3.15h11a1.58,1.58,0,1,0,0-3.15Zm0,7.88H34.7a1.58,1.58,0,0,0,0,3.16H53.62a1.58,1.58,0,1,0,0-3.16Zm0,11h-41A1.57,1.57,0,0,0,11,30V53.64a1.58,1.58,0,0,0,1.58,1.58h41a1.58,1.58,0,0,0,1.58-1.58V30A1.57,1.57,0,0,0,53.62,28.4ZM20.5,52.06H14.19V47.33H20.5Zm0-7.89H14.19V39.44H20.5Zm0-7.89H14.19V31.55H20.5ZM36.27,52.06H23.66V47.33H36.27Zm0-7.89H23.66V39.44H36.27Zm0-7.89H23.66V31.55H36.27ZM52.05,52.06H39.43V47.33H52.05Zm0-7.89H39.43V39.44H52.05Zm0-7.89H39.43V31.55H52.05ZM15.77,64.68h1.58a1.58,1.58,0,1,0,0-3.15H15.77a1.58,1.58,0,1,0,0,3.15Zm34.7-3.15H25.23a1.58,1.58,0,0,0,0,3.15H50.47a1.58,1.58,0,1,0,0-3.15Zm-34.7,11h1.58a1.58,1.58,0,0,0,0-3.16H15.77a1.58,1.58,0,0,0,0,3.16Zm34.7-3.16H25.23a1.58,1.58,0,0,0,0,3.16H50.47a1.58,1.58,0,0,0,0-3.16Zm-34.7,11h1.58a1.58,1.58,0,1,0,0-3.16H15.77a1.58,1.58,0,0,0,0,3.16Zm34.7-3.16H25.23a1.58,1.58,0,0,0,0,3.16H50.47a1.58,1.58,0,0,0,0-3.16Z"/></g></g></g></svg>