<svg xmlns="http://www.w3.org/2000/svg" viewBox="0 0 575.28 326.82"><g id="Camada_2" data-name="Camada 2"><g id="Camada_1-2" data-name="Camada 1"><path d="M101.52,320H106V300.43h-4.43Zm32.06-6.87-8.47-12.71h-4.22V320h4.37V307.06L133.93,320h4V300.43h-4.37Zm32.69,1.78a5.27,5.27,0,0,1-1.59,1,6.39,6.39,0,0,1-2.35.38,5.29,5.29,0,0,1-4.91-3,6.87,6.87,0,0,1-.69-3.11,7,7,0,0,1,.69-3.12,5.62,5.62,0,0,1,2-2.24,5.38,5.38,0,0,1,3-.84,5.31,5.31,0,0,1,2.87.75,7.24,7.24,0,0,1,2.08,2l3-2.9a8.83,8.83,0,0,0-3.4-2.88,10.67,10.67,0,0,0-4.75-1,10.53,10.53,0,0,0-4.11.79,9.62,9.62,0,0,0-3.2,2.2,10.05,10.05,0,0,0-2.06,3.31,11.13,11.13,0,0,0-.74,4.06,10.68,10.68,0,0,0,1.28,5.27,9.36,9.36,0,0,0,3.54,3.63,10.25,10.25,0,0,0,5.24,1.32,10.13,10.13,0,0,0,3.39-.56,10.66,10.66,0,0,0,2.86-1.5,9.76,9.76,0,0,0,2.1-2.05l-3-2.76A15.1,15.1,0,0,1,166.27,314.92Zm33.85-12.05a10,10,0,0,0-3.24-2.19,10.75,10.75,0,0,0-8,0,9.77,9.77,0,0,0-3.24,2.19,10.13,10.13,0,0,0-2.14,3.27,10.59,10.59,0,0,0-.76,4.06,10.7,10.7,0,0,0,.76,4.06,10,10,0,0,0,2.16,3.28,9.83,9.83,0,0,0,3.23,2.19,10.72,10.72,0,0,0,8,0,10,10,0,0,0,5.4-5.47,10.9,10.9,0,0,0,.76-4.06,10.79,10.79,0,0,0-.76-4.06A10,10,0,0,0,200.12,302.87Zm-2.37,10.36a5.54,5.54,0,0,1-1.91,2.26,5.63,5.63,0,0,1-6,0,5.64,5.64,0,0,1-1.92-2.26,7,7,0,0,1-.67-3.08,6.94,6.94,0,0,1,.67-3.07,5.55,5.55,0,0,1,1.92-2.23,5.69,5.69,0,0,1,6,0,5.45,5.45,0,0,1,1.91,2.23,7.08,7.08,0,0,1,.66,3.07A7.18,7.18,0,0,1,197.75,313.23Zm32.76-3.35a6.45,6.45,0,0,0,.83-3.32,6.26,6.26,0,0,0-.76-3.06,5.57,5.57,0,0,0-2.28-2.23,7.84,7.84,0,0,0-3.81-.84h-7.27V320h4.31v-7.19H224l3.63,7.19h4.87l-4.34-7.84A6.12,6.12,0,0,0,230.51,309.88Zm-4.32-1.35a2.57,2.57,0,0,1-1.94.74h-2.72v-5.2h2.72a2.66,2.66,0,0,1,1.92.7,2.84,2.84,0,0,1,0,3.76Zm31-7.2a7.64,7.64,0,0,0-3.94-.9h-7.12V320h4.3v-6.9h3a7.52,7.52,0,0,0,3.27-.72,6,6,0,0,0,2.45-2.14,6.29,6.29,0,0,0,.93-3.51,6.92,6.92,0,0,0-.7-3.08A5.44,5.44,0,0,0,257.21,301.33ZM255,308.77a2.57,2.57,0,0,1-1.94.76h-2.58V304H253a2.58,2.58,0,0,1,2,.78,2.81,2.81,0,0,1,.73,2A2.69,2.69,0,0,1,255,308.77Zm35.91-5.9a10,10,0,0,0-3.24-2.19,10.75,10.75,0,0,0-8,0,9.77,9.77,0,0,0-3.24,2.19,10.13,10.13,0,0,0-2.14,3.27,10.59,10.59,0,0,0-.76,4.06,10.7,10.7,0,0,0,.76,4.06,10.09,10.09,0,0,0,2.15,3.28,10,10,0,0,0,3.24,2.19,10.72,10.72,0,0,0,8,0,10,10,0,0,0,3.24-2.19,9.78,9.78,0,0,0,2.15-3.28,10.7,10.7,0,0,0,.76-4.06,10.59,10.59,0,0,0-.76-4.06A9.84,9.84,0,0,0,290.88,302.87Zm-2.37,10.36a5.54,5.54,0,0,1-1.91,2.26,5.63,5.63,0,0,1-6,0,5.64,5.64,0,0,1-1.92-2.26,7,7,0,0,1-.67-3.08,6.94,6.94,0,0,1,.67-3.07,5.55,5.55,0,0,1,1.92-2.23,5.69,5.69,0,0,1,6,0,5.45,5.45,0,0,1,1.91,2.23,7.08,7.08,0,0,1,.66,3.07A7.18,7.18,0,0,1,288.51,313.23Zm32.76-3.35a6.45,6.45,0,0,0,.83-3.32,6.26,6.26,0,0,0-.76-3.06,5.57,5.57,0,0,0-2.28-2.23,7.84,7.84,0,0,0-3.81-.84H308V320h4.31v-7.19h2.46l3.63,7.19h4.87l-4.34-7.84A6.19,6.19,0,0,0,321.27,309.88ZM317,308.53a2.57,2.57,0,0,1-1.94.74h-2.72v-5.2H315a2.66,2.66,0,0,1,1.92.7,2.56,2.56,0,0,1,.72,1.91A2.59,2.59,0,0,1,317,308.53Zm25.55-8.1L335.2,320h4.63l1.5-4.49h6.89l1.49,4.49h4.84l-7.15-19.58Zm-.15,11.65,2.44-7.39,2.37,7.39Zm36.11,9.66a4.4,4.4,0,0,0-2.46-.67,8.61,8.61,0,0,0-2.55.32l-.38,2a6.31,6.31,0,0,1,.95-.22,8.72,8.72,0,0,1,1-.07,3.29,3.29,0,0,1,1,.16.59.59,0,0,1,.45.58.63.63,0,0,1-.51.63,3.9,3.9,0,0,1-1.1.16,6.72,6.72,0,0,1-2.08-.35l-.41,2.11c.26.08.65.17,1.19.28a10.42,10.42,0,0,0,1.89.16,5.86,5.86,0,0,0,1.89-.32,3.5,3.5,0,0,0,1.51-1,2.59,2.59,0,0,0,.58-1.74A2.25,2.25,0,0,0,378.46,321.74Zm1.83-6.82a5.2,5.2,0,0,1-1.6,1,6.29,6.29,0,0,1-2.34.38,5.29,5.29,0,0,1-4.91-3,6.87,6.87,0,0,1-.69-3.11,7,7,0,0,1,.69-3.12,5.6,5.6,0,0,1,2-2.24,5.39,5.39,0,0,1,3-.84,5.31,5.31,0,0,1,2.87.75,7.37,7.37,0,0,1,2.08,2l3-2.9a8.83,8.83,0,0,0-3.4-2.88,11.47,11.47,0,0,0-8.87-.21,9.58,9.58,0,0,0-3.19,2.2,10.08,10.08,0,0,0-2.07,3.31,11.13,11.13,0,0,0-.73,4.06,10.68,10.68,0,0,0,1.28,5.27,9.36,9.36,0,0,0,3.54,3.63,10.86,10.86,0,0,0,8.63.76,10.66,10.66,0,0,0,2.86-1.5,9.48,9.48,0,0,0,2.09-2.05l-3-2.76A15.1,15.1,0,0,1,380.29,314.92ZM403.56,298a3.34,3.34,0,0,1,1.57-.34,3,3,0,0,1,1.39.31l1.22.63a2.89,2.89,0,0,0,1.4.32,4.1,4.1,0,0,0,2.17-.58,7.66,7.66,0,0,0,1.61-1.27l-1.58-2.4a8.29,8.29,0,0,1-1.16.73,3.34,3.34,0,0,1-1.57.35,3,3,0,0,1-1.37-.31l-1.23-.61a3,3,0,0,0-1.41-.31,4.29,4.29,0,0,0-2.17.57,6.66,6.66,0,0,0-1.61,1.25l1.58,2.41A5.79,5.79,0,0,1,403.56,298Zm10.58,4.86a10,10,0,0,0-3.24-2.19,10.75,10.75,0,0,0-8,0,9.57,9.57,0,0,0-3.24,2.19,10.13,10.13,0,0,0-2.14,3.27,10.59,10.59,0,0,0-.76,4.06,10.7,10.7,0,0,0,.76,4.06,9.95,9.95,0,0,0,5.39,5.47,10.72,10.72,0,0,0,8,0,9.95,9.95,0,0,0,5.39-5.47,10.7,10.7,0,0,0,.76-4.06,10.59,10.59,0,0,0-.76-4.06A10,10,0,0,0,414.14,302.87Zm-2.37,10.36a5.62,5.62,0,0,1-1.91,2.26,5.63,5.63,0,0,1-5.95,0,5.64,5.64,0,0,1-1.92-2.26,7,7,0,0,1-.67-3.08,6.94,6.94,0,0,1,.67-3.07,5.55,5.55,0,0,1,1.92-2.23,5.69,5.69,0,0,1,5.95,0,5.53,5.53,0,0,1,1.91,2.23,7.22,7.22,0,0,1,.65,3.07A7.33,7.33,0,0,1,411.77,313.23Zm23.89-1.35h6.95v-3.76h-6.95v-3.81h8.94v-3.88H431.24V320h14v-3.9h-9.59Zm36.9-.76a6,6,0,0,0-2.18-2,12.45,12.45,0,0,0-2.77-1.06,10,10,0,0,1-2.91-1,1.82,1.82,0,0,1-1.05-1.61,1.59,1.59,0,0,1,.8-1.31,3.09,3.09,0,0,1,1.75-.54,4.75,4.75,0,0,1,2.49.63,18.47,18.47,0,0,1,1.7,1.13l2.55-2.82a8.3,8.3,0,0,0-1.14-1,8.55,8.55,0,0,0-2.19-1.13,9.36,9.36,0,0,0-3.35-.52,8.48,8.48,0,0,0-4,.84,5.68,5.68,0,0,0-3.16,5.21,4.84,4.84,0,0,0,1.46,3.64,8.12,8.12,0,0,0,3.69,2,13.33,13.33,0,0,1,3.35,1.17,1.89,1.89,0,0,1,1.05,1.7,1.71,1.71,0,0,1-.42,1.16,2.69,2.69,0,0,1-1.07.73,3.56,3.56,0,0,1-1.32.25,5.5,5.5,0,0,1-3-.79,9.59,9.59,0,0,1-2-1.61L458,317.25a10.78,10.78,0,0,0,1.88,1.57,9.84,9.84,0,0,0,2.61,1.22,11.52,11.52,0,0,0,3.43.47,9.08,9.08,0,0,0,3.81-.79,6.78,6.78,0,0,0,2.69-2.18,5.18,5.18,0,0,0,1-3.14A5.8,5.8,0,0,0,472.56,311.12Z"/><path d="M506.26,246.35a14.78,14.78,0,0,1,4.87.75,10.58,10.58,0,0,1,3.63,2.09,8.85,8.85,0,0,1,2.24,3.17,10.57,10.57,0,0,1,0,8,8.77,8.77,0,0,1-2.24,3.17,10.42,10.42,0,0,1-3.63,2.09,16.19,16.19,0,0,1-9.74,0,10.57,10.57,0,0,1-3.66-2.09,8.84,8.84,0,0,1-2.27-3.17,10.7,10.7,0,0,1,0-8,8.93,8.93,0,0,1,2.27-3.17,10.73,10.73,0,0,1,3.66-2.09A14.73,14.73,0,0,1,506.26,246.35Zm0,17.37a11.35,11.35,0,0,0,3.65-.54,7.6,7.6,0,0,0,2.69-1.53,6.38,6.38,0,0,0,1.66-2.35,8.08,8.08,0,0,0,0-5.91,6.26,6.26,0,0,0-1.66-2.34,7.6,7.6,0,0,0-2.69-1.53,12.64,12.64,0,0,0-7.31,0,7.6,7.6,0,0,0-2.69,1.53,6.26,6.26,0,0,0-1.66,2.34,8.08,8.08,0,0,0,0,5.91,6.38,6.38,0,0,0,1.66,2.35,7.6,7.6,0,0,0,2.69,1.53A11.41,11.41,0,0,0,506.26,263.72Zm5.1-8.73a3.25,3.25,0,0,1-.42,1.66,2.62,2.62,0,0,1-1.36,1.1l2,3.24h-3.32l-1.64-2.81h-2.11V261h-3V251.7h5.71a4.6,4.6,0,0,1,3.11.89A3.05,3.05,0,0,1,511.36,255Zm-7-.89v2.15H507c1,0,1.45-.36,1.45-1.08a1,1,0,0,0-.35-.77,1.66,1.66,0,0,0-1.1-.3Z"/><polygon points="297.09 96.25 297.09 142.25 321.72 142.25 321.72 216.7 253.04 216.7 253.04 142.25 280.31 142.25 280.31 96.25 253.04 96.25 196.83 96.25 196.83 216.7 196.83 266.34 377.92 266.34 377.92 216.7 377.92 96.25 321.72 96.25 297.09 96.25"/><polygon points="575.28 0 297.09 0 297.09 66.59 406.93 66.59 406.93 216.7 406.93 266.34 473.41 266.34 473.41 216.7 473.41 66.59 575.28 66.59 575.28 0"/><polygon points="0 0 0 66.59 25.01 66.59 101.52 66.59 101.52 216.7 101.52 266.34 168 266.34 168 216.7 168 66.59 280.31 66.59 280.31 0 0 0"/></g></g></svg>