<svg xmlns="http://www.w3.org/2000/svg" viewBox="0 0 97.78 97.78"><defs><style>.cls-1{isolation:isolate;}.cls-2{fill:#fff;}</style></defs><g id="Camada_2" data-name="Camada 2"><g id="Forma_3" data-name="Forma 3" class="cls-1"><g id="Forma_3-2" data-name="Forma 3"><path class="cls-2" d="M82,14.19A15.77,15.77,0,1,0,97.78,30,15.79,15.79,0,0,0,82,14.19Zm0,28.39A12.62,12.62,0,1,1,94.63,30,12.63,12.63,0,0,1,82,42.58Zm6.31-14.19H83.59V22.08a1.58,1.58,0,0,0-3.16,0V30A1.58,1.58,0,0,0,82,31.54h6.31a1.58,1.58,0,1,0,0-3.15ZM66.7,76.16l-9.92,9.92-5.2-5.19a1.58,1.58,0,1,0-2.23,2.23l6.31,6.31a1.58,1.58,0,0,0,2.23,0l11-11a1.58,1.58,0,0,0-2.23-2.23Zm-.46,10.58a1.57,1.57,0,0,0-1.58,1.57v4.74a1.58,1.58,0,0,1-1.57,1.57H47.31a1.57,1.57,0,0,1-1.57-1.57V77.27a1.57,1.57,0,0,1,1.57-1.57h14.2a1.58,1.58,0,1,0,0-3.16H47.31a4.74,4.74,0,0,0-4.73,4.73V93.05a4.74,4.74,0,0,0,4.73,4.73H63.09a4.75,4.75,0,0,0,4.73-4.73V88.31A1.57,1.57,0,0,0,66.24,86.74ZM33.12,58.07v-41a1.58,1.58,0,0,0-1.58-1.58H12.61a1.56,1.56,0,0,0-1.08.43h0l0,0L.46,27a1.59,1.59,0,0,0-.34,1.72,1.57,1.57,0,0,0,1.46,1h11a1.57,1.57,0,0,0,1.57-1.58V18.64H30V56.49H3.15V34.41a1.58,1.58,0,1,0-3.15,0V58.07a1.57,1.57,0,0,0,1.58,1.57h30A1.57,1.57,0,0,0,33.12,58.07ZM11,26.53H5.38L11,20.87ZM7.89,39.14H9.46a1.58,1.58,0,1,0,0-3.15H7.89a1.58,1.58,0,1,0,0,3.15Zm7.88,0h9.46a1.58,1.58,0,1,0,0-3.15H15.77a1.58,1.58,0,1,0,0,3.15ZM7.89,48.61H9.46a1.58,1.58,0,0,0,0-3.16H7.89a1.58,1.58,0,0,0,0,3.16Zm7.88,0h9.46a1.58,1.58,0,1,0,0-3.16H15.77a1.58,1.58,0,0,0,0,3.16Zm14.9-38.32A40.49,40.49,0,0,1,48.89,6,41.07,41.07,0,0,1,65.43,9.52l-5.7,2.14a1.58,1.58,0,0,0,.55,3.06,1.5,1.5,0,0,0,.55-.11l9-3.36A1.57,1.57,0,0,0,70.64,9L66,.81A1.59,1.59,0,0,0,63.89.2a1.58,1.58,0,0,0-.6,2.15l2.09,3.72a44.36,44.36,0,0,0-16.49-3.2,43.61,43.61,0,0,0-19.63,4.6,1.58,1.58,0,1,0,1.41,2.82ZM91.25,51.78a1.57,1.57,0,0,0-1.79,1.33,40.67,40.67,0,0,1-8.62,19.62l-.59-6.08a1.58,1.58,0,0,0-3.14.3L78,76.5a1.57,1.57,0,0,0,1.57,1.43,1.51,1.51,0,0,0,.41-.06l.1,0,0,0,9-2.41a1.57,1.57,0,0,0-.82-3l-4.07,1.09a43.78,43.78,0,0,0,8.31-19.9A1.58,1.58,0,0,0,91.25,51.78Zm-56,33.91A41,41,0,0,1,15.81,71.24l6,1a1.58,1.58,0,1,0,.52-3.11l-9.46-1.58a1.59,1.59,0,0,0-1.28.35A1.56,1.56,0,0,0,11,69.11v9.46a1.58,1.58,0,1,0,3.15,0V74.32a44.21,44.21,0,0,0,20,14.35,1.64,1.64,0,0,0,.53.09,1.58,1.58,0,0,0,.52-3.07Z"/></g></g></g></svg>